{
	"asset":{
		"generator":"Khronos glTF Blender I/O v4.3.47",
		"version":"2.0"
	},
	"extensionsUsed":[
		"KHR_materials_transmission",
		"KHR_materials_emissive_strength",
		"KHR_materials_specular",
		"KHR_materials_ior"
	],
	"scene":0,
	"scenes":[
		{
			"name":"Scene",
			"nodes":[
				4
			]
		}
	],
	"nodes":[
		{
			"mesh":0,
			"name":"bulb",
			"rotation":[
				0.7071068286895752,
				0,
				0,
				0.7071068286895752
			],
			"scale":[
				0.4719165563583374,
				0.4719165563583374,
				0.4719165861606598
			],
			"translation":[
				0,
				0,
				-1.1273468732833862
			]
		},
		{
			"mesh":1,
			"name":"patron",
			"rotation":[
				0.7071068286895752,
				0,
				0,
				0.7071068286895752
			],
			"scale":[
				0.4719165563583374,
				0.4719165563583374,
				0.4719165861606598
			],
			"translation":[
				0,
				0,
				-1.1273468732833862
			]
		},
		{
			"mesh":2,
			"name":"Wire",
			"rotation":[
				0.7071068286895752,
				0,
				0,
				0.7071068286895752
			],
			"scale":[
				0.4719165563583374,
				0.4719165563583374,
				0.4719165861606598
			],
			"translation":[
				4.651966082747094e-05,
				-0.00018846846069209278,
				0.002451599109917879
			]
		},
		{
			"mesh":3,
			"name":"Wolfram_wire",
			"rotation":[
				0.7071068286895752,
				0,
				0,
				0.7071068286895752
			],
			"translation":[
				0.0191919207572937,
				0,
				-1.173323392868042
			]
		},
		{
			"children":[
				0,
				1,
				2,
				3
			],
			"name":"Vintage incandescent lamp",
			"rotation":[
				-0.7104026079177856,
				-0.038635510951280594,
				-0.040148839354515076,
				0.7015865445137024
			],
			"translation":[
				0.001409253804013133,
				-0.012561686336994171,
				-0.004247295670211315
			]
		}
	],
	"materials":[
		{
			"doubleSided":true,
			"extensions":{
				"KHR_materials_transmission":{
					"transmissionFactor":1
				},
				"KHR_materials_ior":{
					"ior":1.4600000381469727
				}
			},
			"name":"Lamp_glass.001",
			"pbrMetallicRoughness":{
				"baseColorFactor":[
					0.8500000238418579,
					0.8047555088996887,
					0.7753952741622925,
					1
				],
				"metallicFactor":0,
				"metallicRoughnessTexture":{
					"index":0
				}
			}
		},
		{
			"doubleSided":true,
			"extensions":{
				"KHR_materials_specular":{
					"specularFactor":0.6290909051895142
				},
				"KHR_materials_ior":{
					"ior":1.4500000476837158
				}
			},
			"name":"lamp_plastic.001",
			"pbrMetallicRoughness":{
				"baseColorFactor":[
					0.01721579022705555,
					0.017480675131082535,
					0.024377722293138504,
					1
				],
				"metallicFactor":0,
				"roughnessFactor":0.30000001192092896
			}
		},
		{
			"doubleSided":true,
			"emissiveFactor":[
				1,
				0.06490744535707425,
				0
			],
			"extensions":{
				"KHR_materials_emissive_strength":{
					"emissiveStrength":800.0000715255737
				}
			},
			"name":"wire.001",
			"pbrMetallicRoughness":{
				"baseColorFactor":[
					0.8000000715255737,
					0.44831594824790955,
					0,
					1
				],
				"roughnessFactor":0.11454546451568604
			}
		}
	],
	"meshes":[
		{
			"name":"Cylinder.002",
			"primitives":[
				{
					"attributes":{
						"POSITION":0,
						"NORMAL":1,
						"TEXCOORD_0":2
					},
					"indices":3,
					"material":0
				}
			]
		},
		{
			"name":"Cylinder.001",
			"primitives":[
				{
					"attributes":{
						"POSITION":4,
						"NORMAL":5,
						"TEXCOORD_0":6
					},
					"indices":7,
					"material":1
				}
			]
		},
		{
			"name":"BezierCurve.003",
			"primitives":[
				{
					"attributes":{
						"POSITION":8,
						"NORMAL":9,
						"TEXCOORD_0":10
					},
					"indices":11,
					"material":1
				}
			]
		},
		{
			"name":"BezierCurve.002",
			"primitives":[
				{
					"attributes":{
						"POSITION":12,
						"NORMAL":13,
						"TEXCOORD_0":14
					},
					"indices":15,
					"material":2
				}
			]
		}
	],
	"textures":[
		{
			"sampler":0,
			"source":0
		}
	],
	"images":[
		{
			"bufferView":4,
			"mimeType":"image/png",
			"name":"Lamp_glass_Roughness"
		}
	],
	"accessors":[
		{
			"bufferView":0,
			"componentType":5126,
			"count":134,
			"max":[
				0.11584854871034622,
				0.25325947999954224,
				0.11584856361150742
			],
			"min":[
				-0.11584856361150742,
				-0.306759238243103,
				-0.11584856361150742
			],
			"type":"VEC3"
		},
		{
			"bufferView":1,
			"componentType":5126,
			"count":134,
			"type":"VEC3"
		},
		{
			"bufferView":2,
			"componentType":5126,
			"count":134,
			"type":"VEC2"
		},
		{
			"bufferView":3,
			"componentType":5123,
			"count":618,
			"type":"SCALAR"
		},
		{
			"bufferView":5,
			"componentType":5126,
			"count":272,
			"max":[
				0.05904403701424599,
				0.36556360125541687,
				0.05904403701424599
			],
			"min":[
				-0.05904403701424599,
				0.2485053539276123,
				-0.05904403701424599
			],
			"type":"VEC3"
		},
		{
			"bufferView":6,
			"componentType":5126,
			"count":272,
			"type":"VEC3"
		},
		{
			"bufferView":7,
			"componentType":5126,
			"count":272,
			"type":"VEC2"
		},
		{
			"bufferView":8,
			"componentType":5123,
			"count":1620,
			"type":"SCALAR"
		},
		{
			"bufferView":9,
			"componentType":5126,
			"count":141,
			"max":[
				0.0059999991208314896,
				0.00023296565632335842,
				0.0059999991208314896
			],
			"min":[
				-0.0059999991208314896,
				-2.0383753776550293,
				-0.0059999991208314896
			],
			"type":"VEC3"
		},
		{
			"bufferView":10,
			"componentType":5126,
			"count":141,
			"type":"VEC3"
		},
		{
			"bufferView":11,
			"componentType":5126,
			"count":141,
			"type":"VEC2"
		},
		{
			"bufferView":12,
			"componentType":5123,
			"count":636,
			"type":"SCALAR"
		},
		{
			"bufferView":13,
			"componentType":5126,
			"count":1267,
			"max":[
				0.010393879376351833,
				0.16864719986915588,
				0.02007412165403366
			],
			"min":[
				-0.05466499179601669,
				-0.06476584076881409,
				-0.02722243405878544
			],
			"type":"VEC3"
		},
		{
			"bufferView":14,
			"componentType":5126,
			"count":1267,
			"type":"VEC3"
		},
		{
			"bufferView":15,
			"componentType":5126,
			"count":1267,
			"type":"VEC2"
		},
		{
			"bufferView":16,
			"componentType":5123,
			"count":6480,
			"type":"SCALAR"
		}
	],
	"bufferViews":[
		{
			"buffer":0,
			"byteLength":1608,
			"byteOffset":0,
			"target":34962
		},
		{
			"buffer":0,
			"byteLength":1608,
			"byteOffset":1608,
			"target":34962
		},
		{
			"buffer":0,
			"byteLength":1072,
			"byteOffset":3216,
			"target":34962
		},
		{
			"buffer":0,
			"byteLength":1236,
			"byteOffset":4288,
			"target":34963
		},
		{
			"buffer":0,
			"byteLength":1048143,
			"byteOffset":5524
		},
		{
			"buffer":0,
			"byteLength":3264,
			"byteOffset":1053668,
			"target":34962
		},
		{
			"buffer":0,
			"byteLength":3264,
			"byteOffset":1056932,
			"target":34962
		},
		{
			"buffer":0,
			"byteLength":2176,
			"byteOffset":1060196,
			"target":34962
		},
		{
			"buffer":0,
			"byteLength":3240,
			"byteOffset":1062372,
			"target":34963
		},
		{
			"buffer":0,
			"byteLength":1692,
			"byteOffset":1065612,
			"target":34962
		},
		{
			"buffer":0,
			"byteLength":1692,
			"byteOffset":1067304,
			"target":34962
		},
		{
			"buffer":0,
			"byteLength":1128,
			"byteOffset":1068996,
			"target":34962
		},
		{
			"buffer":0,
			"byteLength":1272,
			"byteOffset":1070124,
			"target":34963
		},
		{
			"buffer":0,
			"byteLength":15204,
			"byteOffset":1071396,
			"target":34962
		},
		{
			"buffer":0,
			"byteLength":15204,
			"byteOffset":1086600,
			"target":34962
		},
		{
			"buffer":0,
			"byteLength":10136,
			"byteOffset":1101804,
			"target":34962
		},
		{
			"buffer":0,
			"byteLength":12960,
			"byteOffset":1111940,
			"target":34963
		}
	],
	"samplers":[
		{
			"magFilter":9729,
			"minFilter":9987
		}
	],
	"buffers":[
		{
			"byteLength":1124900,
			"uri":"data:application/octet-stream;base64,"
		}
	]
}
