<?xml version="1.0" encoding="UTF-8" standalone="no"?>
<svg
   width="176.34758"
   height="17.58576"
   viewBox="6 0 200.55724 20"
   fill="none"
   stroke="#029cfd"
   stroke-width="2"
   stroke-linecap="round"
   stroke-linejoin="round"
   class="lucide lucide-sticker-icon lucide-sticker"
   version="1.1"
   id="svg5"
   sodipodi:docname="sticker.svg"
   inkscape:version="1.4 (e7c3feb1, 2024-10-09)"
   xmlns:inkscape="http://www.inkscape.org/namespaces/inkscape"
   xmlns:sodipodi="http://sodipodi.sourceforge.net/DTD/sodipodi-0.dtd"
   xmlns="http://www.w3.org/2000/svg"
   xmlns:svg="http://www.w3.org/2000/svg">
  <defs
     id="defs5">
    <rect
       x="-32.562279"
       y="-32.562279"
       width="271.22897"
       height="80.295616"
       id="rect1" />
  </defs>
  <sodipodi:namedview
     id="namedview5"
     pagecolor="#ffffff"
     bordercolor="#000000"
     borderopacity="0.25"
     inkscape:showpageshadow="2"
     inkscape:pageopacity="0.0"
     inkscape:pagecheckerboard="0"
     inkscape:deskcolor="#d1d1d1"
     inkscape:zoom="3.968764"
     inkscape:cx="84.031199"
     inkscape:cy="41.952608"
     inkscape:window-width="1728"
     inkscape:window-height="966"
     inkscape:window-x="0"
     inkscape:window-y="38"
     inkscape:window-maximized="0"
     inkscape:current-layer="svg5" />
  <path
     d="M 19.5,1 H 9 A 2,2 0 0 0 7,3 v 14 c 0,1.1 0.9,2 2,2 h 14 a 2,2 0 0 0 2,-2 V 6.5 Z"
     id="path1" />
  <path
     d="m 18,1 v 4 a 2,2 0 0 0 2,2 h 4"
     id="path2" />
  <path
     d="m 12,11 h 0.01"
     id="path3" />
  <path
     d="m 20,11 h 0.01"
     id="path4" />
  <path
     d="m 14,14 c 0,0 0.8,1 2,1 1.3,0 2,-1 2,-1"
     id="path5" />
  <text
     xml:space="preserve"
     style="font-size:16px;text-align:start;writing-mode:lr-tb;direction:ltr;text-anchor:start;fill:#029cfd"
     x="-13.947884"
     y="-13.570066"
     id="text5"><tspan
       sodipodi:role="line"
       id="tspan5"
       x="-13.947884"
       y="-13.570066"
       style="font-style:normal;font-variant:normal;font-weight:normal;font-stretch:normal;font-size:16px;font-family:'Departure Mono';-inkscape-font-specification:'Departure Mono'" /><tspan
       sodipodi:role="line"
       x="-13.947884"
       y="6.45579"
       style="font-style:normal;font-variant:normal;font-weight:normal;font-stretch:normal;font-size:16px;font-family:'Departure Mono';-inkscape-font-specification:'Departure Mono'"
       id="tspan3" /></text>
  <path
     d="m 40.554325,0.029188 v 19.529745 h 2.441218 v -7.323654 h 7.323654 V 9.794061 H 42.995543 V 2.470407 h 7.323654 V 0.029188 Z m 9.764872,2.441219 v 7.323654 h 2.441218 V 2.470407 Z M 57.64286,0.029188 V 19.558933 H 69.848951 V 17.117715 H 60.084078 V 0.029188 Z m 17.088533,4.882437 v 14.647308 h 2.44122 v -7.323654 h 7.32365 v 7.323654 h 2.44122 V 4.911625 h -2.44122 v 4.882436 h -7.32365 V 4.911625 Z m 4.88244,-4.882437 v 2.441219 h 2.44122 V 0.029188 Z m -2.44122,2.441219 v 2.441218 h 2.44122 V 2.470407 Z m 4.88244,0 v 2.441218 h 2.44121 V 2.470407 Z m 9.76488,-2.441219 v 7.323655 h 2.44122 V 0.029188 Z m 9.764867,0 v 7.323655 h 2.44122 V 0.029188 Z m -4.882437,9.764873 v 9.764872 h 2.44122 V 9.794061 Z m -2.44121,-2.441218 v 2.441218 h 2.44121 V 7.352843 Z m 4.88243,0 V 9.794061 H 101.5848 V 7.352843 Z m 9.764887,-4.882436 v 14.647308 h 2.44122 V 2.470407 Z m 2.44122,14.647308 v 2.441218 h 7.32366 v -2.441218 z m 7.32366,-4.882436 v 4.882436 h 2.44122 V 9.794061 h -4.88244 v 2.441218 z M 111.34969,0.029188 v 2.441219 h 7.32366 V 0.029188 Z m 7.32366,2.441219 v 2.441218 h 2.44122 V 2.470407 Z m 7.32366,-2.441219 v 19.529745 h 2.44122 v -7.323654 h 4.88243 v 2.441218 h 2.44122 V 9.794061 h -7.32365 V 2.470407 h 7.32365 V 0.029188 Z m 9.76487,2.441219 v 7.323654 h 2.44122 V 2.470407 Z m 0,12.20609 v 4.882436 h 2.44122 v -4.882436 z m 7.32367,-12.20609 v 14.647308 h 2.44121 V 2.470407 Z m 2.44121,14.647308 v 2.441218 h 7.32366 v -2.441218 z m 7.32366,-14.647308 v 14.647308 h 2.44122 V 2.470407 Z m -7.32366,-2.441219 v 2.441219 h 7.32366 V 0.029188 Z m 14.64733,0 v 17.088527 h 2.44121 V 0.029188 Z m 2.44121,17.088527 v 2.441218 h 7.32366 v -2.441218 z m 7.32366,-17.088527 v 17.088527 h 2.44122 V 0.029188 Z m 7.32366,0 v 19.529745 h 2.44122 V 7.352843 h 2.44121 V 4.911625 h -2.44121 V 0.029188 Z m 9.76487,12.206091 v 7.323654 h 2.44122 V 0.029188 h -2.44122 v 9.764873 h -2.44122 v 2.441218 z M 184.58627,9.794061 V 7.352843 h -2.44122 v 2.441218 z m 9.76488,-9.764873 v 19.529745 h 9.76487 v -2.441218 h -7.32365 V 2.470407 h 7.32365 V 0.029188 Z m 9.76487,2.441219 v 14.647308 h 2.44122 V 2.470407 Z"
     id="text2"
     style="color:#000000;font-style:normal;font-variant:normal;font-weight:normal;font-stretch:normal;font-size:26.8534px;line-height:normal;font-family:'Departure Mono';-inkscape-font-specification:'Departure Mono';font-variant-ligatures:normal;font-variant-position:normal;font-variant-caps:normal;font-variant-numeric:normal;font-variant-alternates:normal;font-variant-east-asian:normal;font-feature-settings:normal;font-variation-settings:normal;text-indent:0;text-align:start;text-decoration-line:none;text-decoration-style:solid;text-decoration-color:#000000;letter-spacing:normal;word-spacing:normal;text-transform:none;writing-mode:lr-tb;direction:ltr;text-orientation:mixed;dominant-baseline:auto;baseline-shift:baseline;text-anchor:start;white-space:normal;shape-padding:0;shape-margin:0;inline-size:0;clip-rule:nonzero;display:inline;overflow:visible;visibility:visible;isolation:auto;mix-blend-mode:soft-light;color-interpolation:sRGB;color-interpolation-filters:linearRGB;solid-color:#000000;solid-opacity:1;vector-effect:none;fill:#029cfd;fill-opacity:1;fill-rule:nonzero;stroke:none;stroke-linecap:butt;stroke-linejoin:miter;stroke-miterlimit:4;stroke-dasharray:none;stroke-dashoffset:0;stroke-opacity:1;-inkscape-stroke:none;color-rendering:auto;image-rendering:auto;shape-rendering:auto;text-rendering:auto;enable-background:accumulate;stop-color:#000000;stop-opacity:1"
     aria-label="PLAYGROUND" />
  <text
     xml:space="preserve"
     transform="matrix(1.02115,0,0,1.02115,-29.240797,-33.245132)"
     id="text1"
     style="font-size:24px;font-family:'Departure Mono';-inkscape-font-specification:'Departure Mono';text-align:start;writing-mode:lr-tb;direction:ltr;white-space:pre;shape-inside:url(#rect1);fill:#000000;stroke-width:0" />
</svg>
