<?xml version="1.0" encoding="UTF-8" standalone="no"?>
<svg
   width="177"
   height="24"
   viewBox="0 0 177 24"
   fill="none"
   stroke="rgb(2, 156, 253)"
   stroke-width="2"
   stroke-linecap="round"
   stroke-linejoin="round"
   class="lucide lucide-sticker-icon lucide-sticker"
   version="1.1"
   id="svg5"
   sodipodi:docname="sticker.svg"
   inkscape:version="1.4 (e7c3feb1, 2024-10-09)"
   xmlns:inkscape="http://www.inkscape.org/namespaces/inkscape"
   xmlns:sodipodi="http://sodipodi.sourceforge.net/DTD/sodipodi-0.dtd"
   xmlns="http://www.w3.org/2000/svg"
   xmlns:svg="http://www.w3.org/2000/svg">
  <defs
     id="defs5" />
  <sodipodi:namedview
     id="namedview5"
     pagecolor="#ffffff"
     bordercolor="#000000"
     borderopacity="0.25"
    />
  <path
     d="M 15.5,3 H 5 A 2,2 0 0 0 3,5 v 14 c 0,1.1 0.9,2 2,2 h 14 a 2,2 0 0 0 2,-2 V 8.5 Z"
     id="path1" />
  <path
     d="m 14,3 v 4 a 2,2 0 0 0 2,2 h 4"
     id="path2" />
  <path
     d="M 8,13 H 8.01"
     id="path3" />
  <path
     d="m 16,13 h 0.01"
     id="path4" />
  <path
     d="m 10,16 c 0,0 0.8,1 2,1 1.3,0 2,-1 2,-1"
     id="path5" />
  <text
     xml:space="preserve"
     style="font-size:16px;text-align:start;writing-mode:lr-tb;direction:ltr;text-anchor:start;fill:rgb(2, 156, 253)"
     x="23.292913"
     y="21.675066"
     id="text5"><tspan
       sodipodi:role="line"
       id="tspan5"
       x="23.292913"
       y="21.675066"
       style="font-style:normal;font-variant:normal;font-weight:normal;font-stretch:normal;font-size:16px;font-family:'Departure Mono';-inkscape-font-specification:'Departure Mono'" /><tspan
       sodipodi:role="line"
       x="23.292913"
       y="41.700924"
       style="font-style:normal;font-variant:normal;font-weight:normal;font-stretch:normal;font-size:16px;font-family:'Departure Mono';-inkscape-font-specification:'Departure Mono'"
       id="tspan3" /></text>
  <text
     xml:space="preserve"
     style="font-style:normal;font-variant:normal;font-weight:normal;font-stretch:normal;font-size:26.6667px;font-family:'Departure Mono';-inkscape-font-specification:'Departure Mono';text-align:start;writing-mode:lr-tb;direction:ltr;text-anchor:start;display:inline;mix-blend-mode:soft-light;fill:rgb(2, 156, 253);stroke-width:0;stroke-dasharray:none"
     x="24.638781"
     y="21.558933"
     id="text2"><tspan
       sodipodi:role="line"
       id="tspan2"
       x="24.638781"
       y="21.558933"
       style="font-size:26.6667px;fill:rgb(2, 156, 253);fill-opacity:1">Reference</tspan></text>
</svg>
